<?xml version="1.0" standalone="no"?>
<!DOCTYPE svg PUBLIC "-//W3C//DTD SVG 20010904//EN"
 "http://www.w3.org/TR/2001/REC-SVG-20010904/DTD/svg10.dtd">
<svg version="1.0" xmlns="http://www.w3.org/2000/svg"
 width="512.000000pt" height="512.000000pt" viewBox="0 0 512.000000 512.000000"
 preserveAspectRatio="xMidYMid meet">
<metadata>
Created by potrace 1.14, written by Peter Selinger 2001-2017
</metadata>
<g transform="translate(0.000000,512.000000) scale(0.100000,-0.100000)"
fill="#000000" stroke="none">
<path d="M2467 4810 c-125 -16 -275 -128 -331 -245 -23 -49 -29 -78 -35 -184
-5 -69 -8 -938 -7 -1931 2 -1724 3 -1807 21 -1855 44 -121 163 -239 280 -280
59 -20 189 -27 266 -14 133 24 260 123 326 256 l36 73 1 1827 c1 1745 -2 1998
-23 2070 -24 81 -131 198 -226 246 -70 35 -203 51 -308 37z"/>
<path d="M1464 4420 c-144 -20 -262 -114 -341 -272 l-26 -52 -2 -1435 c-1
-790 2 -1489 6 -1554 10 -142 35 -201 119 -288 95 -97 206 -138 368 -133 99 2
154 21 237 80 94 67 153 150 176 249 13 54 21 2681 9 2955 -6 139 -7 148 -39
209 -57 111 -181 212 -289 236 -49 10 -160 13 -218 5z"/>
<path d="M3467 4419 c-129 -20 -251 -114 -321 -248 l-38 -73 -1 -1442 c-1
-792 0 -1479 2 -1526 5 -117 21 -177 65 -242 94 -142 213 -201 408 -201 103
-1 109 1 182 37 129 63 221 173 248 294 9 44 12 384 13 1467 1 776 -1 1460 -5
1520 -6 93 -11 119 -36 170 -52 107 -180 213 -289 239 -44 11 -173 14 -228 5z"/>
<path d="M486 3958 c-61 -13 -152 -66 -200 -118 -64 -69 -96 -139 -105 -229
-5 -42 -7 -544 -6 -1116 l2 -1040 29 -60 c39 -82 125 -167 211 -207 64 -30 75
-32 179 -32 109 0 114 1 187 37 88 43 158 114 202 204 l28 57 2 1035 c1 570
-1 1070 -5 1111 -14 169 -128 306 -287 349 -53 15 -187 20 -237 9z"/>
<path d="M4428 3959 c-106 -17 -221 -104 -278 -211 -29 -54 -34 -75 -40 -163
-3 -55 -5 -557 -4 -1116 l2 -1015 27 -57 c43 -88 115 -161 198 -202 61 -30 85
-36 157 -40 196 -10 337 71 422 240 l31 60 2 1035 c1 569 -1 1071 -6 1114 -17
170 -127 304 -284 344 -56 15 -172 20 -227 11z"/>
</g>
</svg>
